<mxfile host="65bd71144e">
    <diagram id="mOEWWxig-zpEgOpgem8F" name="Page-1">
        <mxGraphModel dx="866" dy="755" grid="1" gridSize="10" guides="1" tooltips="1" connect="1" arrows="1" fold="1" page="1" pageScale="1" pageWidth="1200" pageHeight="1920" background="none" math="0" shadow="0">
            <root>
                <mxCell id="0"/>
                <mxCell id="1" parent="0"/>
                <mxCell id="59" style="edgeStyle=none;html=1;" parent="1" target="3" edge="1">
                    <mxGeometry relative="1" as="geometry">
                        <mxPoint x="360" y="210" as="sourcePoint"/>
                    </mxGeometry>
                </mxCell>
                <mxCell id="60" value="CRUD" style="edgeLabel;html=1;align=center;verticalAlign=middle;resizable=0;points=[];" parent="59" vertex="1" connectable="0">
                    <mxGeometry x="-0.166" y="-3" relative="1" as="geometry">
                        <mxPoint x="3" y="7" as="offset"/>
                    </mxGeometry>
                </mxCell>
                <mxCell id="63" value="CRUD" style="edgeStyle=none;html=1;entryX=0;entryY=0.25;entryDx=0;entryDy=0;" edge="1" parent="1" target="9">
                    <mxGeometry x="-0.2754" relative="1" as="geometry">
                        <mxPoint x="560" y="300" as="targetPoint"/>
                        <mxPoint x="557" y="210" as="sourcePoint"/>
                        <Array as="points">
                            <mxPoint x="557" y="260"/>
                            <mxPoint x="557" y="305"/>
                        </Array>
                        <mxPoint as="offset"/>
                    </mxGeometry>
                </mxCell>
                <mxCell id="2" value="API" style="rounded=0;whiteSpace=wrap;html=1;labelBorderColor=none;fontColor=default;" parent="1" vertex="1">
                    <mxGeometry x="310" y="150" width="270" height="60" as="geometry"/>
                </mxCell>
                <mxCell id="62" value="" style="edgeStyle=none;html=1;endArrow=none;endFill=0;exitX=0;exitY=0.5;exitDx=0;exitDy=0;entryX=1;entryY=0.5;entryDx=0;entryDy=0;entryPerimeter=0;" parent="1" source="3" target="61" edge="1">
                    <mxGeometry relative="1" as="geometry">
                        <Array as="points">
                            <mxPoint x="280" y="320"/>
                        </Array>
                    </mxGeometry>
                </mxCell>
                <mxCell id="3" value="Resolver" style="rounded=1;whiteSpace=wrap;html=1;labelBorderColor=none;fontColor=default;" parent="1" vertex="1">
                    <mxGeometry x="300" y="290" width="120" height="60" as="geometry"/>
                </mxCell>
                <mxCell id="8" style="edgeStyle=none;html=1;exitX=1;exitY=0.5;exitDx=0;exitDy=0;exitPerimeter=0;entryX=0;entryY=0.5;entryDx=0;entryDy=0;endArrow=none;endFill=0;labelBorderColor=none;fontColor=default;" parent="1" source="4" target="3" edge="1">
                    <mxGeometry relative="1" as="geometry">
                        <mxPoint x="290" y="320" as="targetPoint"/>
                        <Array as="points">
                            <mxPoint x="280" y="320"/>
                        </Array>
                    </mxGeometry>
                </mxCell>
                <mxCell id="4" value="Cache" style="shape=cylinder3;whiteSpace=wrap;html=1;boundedLbl=1;backgroundOutline=1;size=15;labelBorderColor=none;fontColor=default;" parent="1" vertex="1">
                    <mxGeometry x="170" y="280" width="80" height="80" as="geometry"/>
                </mxCell>
                <mxCell id="7" style="edgeStyle=none;html=1;exitX=1;exitY=0.5;exitDx=0;exitDy=0;exitPerimeter=0;entryX=0;entryY=0.5;entryDx=0;entryDy=0;endArrow=none;endFill=0;labelBorderColor=none;fontColor=default;" parent="1" source="5" target="3" edge="1">
                    <mxGeometry relative="1" as="geometry">
                        <Array as="points">
                            <mxPoint x="270" y="280"/>
                            <mxPoint x="280" y="320"/>
                        </Array>
                    </mxGeometry>
                </mxCell>
                <mxCell id="5" value="Alias" style="shape=cylinder3;whiteSpace=wrap;html=1;boundedLbl=1;backgroundOutline=1;size=15;labelBorderColor=none;fontColor=default;" parent="1" vertex="1">
                    <mxGeometry x="170" y="180" width="80" height="80" as="geometry"/>
                </mxCell>
                <mxCell id="25" value="" style="edgeStyle=none;html=1;fontColor=default;startArrow=none;startFill=0;endArrow=none;endFill=0;dashed=1;labelBorderColor=none;" parent="1" source="9" target="24" edge="1">
                    <mxGeometry relative="1" as="geometry"/>
                </mxCell>
                <mxCell id="28" value="" style="edgeStyle=none;html=1;dashed=1;fontColor=default;startArrow=none;startFill=0;endArrow=none;endFill=0;entryX=0.07;entryY=0.4;entryDx=0;entryDy=0;entryPerimeter=0;labelBorderColor=none;" parent="1" source="9" target="27" edge="1">
                    <mxGeometry relative="1" as="geometry"/>
                </mxCell>
                <mxCell id="29" value="" style="edgeStyle=none;html=1;dashed=1;fontColor=default;startArrow=none;startFill=0;endArrow=none;endFill=0;labelBorderColor=none;" parent="1" source="9" target="26" edge="1">
                    <mxGeometry relative="1" as="geometry"/>
                </mxCell>
                <mxCell id="30" style="edgeStyle=none;html=1;exitX=0;exitY=0.5;exitDx=0;exitDy=0;entryX=1;entryY=0.5;entryDx=0;entryDy=0;dashed=1;fontColor=default;startArrow=none;startFill=0;endArrow=async;endFill=1;labelBorderColor=none;" parent="1" source="9" target="3" edge="1">
                    <mxGeometry relative="1" as="geometry"/>
                </mxCell>
                <mxCell id="31" value="Extract" style="edgeLabel;html=1;align=center;verticalAlign=middle;resizable=0;points=[];fontColor=default;labelBorderColor=none;" parent="30" vertex="1" connectable="0">
                    <mxGeometry x="0.0337" relative="1" as="geometry">
                        <mxPoint x="-7" as="offset"/>
                    </mxGeometry>
                </mxCell>
                <mxCell id="35" value="" style="edgeStyle=none;html=1;fontColor=default;startArrow=none;startFill=0;endArrow=classic;endFill=1;labelBorderColor=none;exitX=0.5;exitY=1;exitDx=0;exitDy=0;" parent="1" source="11" target="34" edge="1">
                    <mxGeometry relative="1" as="geometry"/>
                </mxCell>
                <mxCell id="36" value="Job" style="edgeLabel;html=1;align=center;verticalAlign=middle;resizable=0;points=[];fontColor=default;labelBorderColor=none;" parent="35" vertex="1" connectable="0">
                    <mxGeometry x="0.075" y="-1" relative="1" as="geometry">
                        <mxPoint x="1" y="-7" as="offset"/>
                    </mxGeometry>
                </mxCell>
                <mxCell id="41" style="edgeStyle=none;html=1;exitX=0.75;exitY=1;exitDx=0;exitDy=0;entryX=0.145;entryY=0;entryDx=0;entryDy=4.35;entryPerimeter=0;fontColor=default;startArrow=none;startFill=0;endArrow=classic;endFill=1;labelBorderColor=none;" parent="1" source="9" target="40" edge="1">
                    <mxGeometry relative="1" as="geometry"/>
                </mxCell>
                <mxCell id="14" style="edgeStyle=none;html=1;exitX=0;exitY=0.5;exitDx=0;exitDy=0;entryX=0.701;entryY=1.009;entryDx=0;entryDy=0;startArrow=classic;startFill=1;endArrow=none;endFill=0;labelBorderColor=none;fontColor=default;entryPerimeter=0;" parent="1" edge="1">
                    <mxGeometry relative="1" as="geometry">
                        <mxPoint x="670" y="460" as="sourcePoint"/>
                        <mxPoint x="527.31" y="210.53999999999996" as="targetPoint"/>
                        <Array as="points">
                            <mxPoint x="530" y="460"/>
                        </Array>
                    </mxGeometry>
                </mxCell>
                <mxCell id="15" value="CRUD" style="edgeLabel;html=1;align=center;verticalAlign=middle;resizable=0;points=[];labelBorderColor=none;fontColor=default;" parent="14" vertex="1" connectable="0">
                    <mxGeometry x="0.2012" y="3" relative="1" as="geometry">
                        <mxPoint x="4" y="-16" as="offset"/>
                    </mxGeometry>
                </mxCell>
                <mxCell id="21" value="" style="edgeStyle=none;html=1;fontColor=default;startArrow=classic;startFill=1;endArrow=none;endFill=0;labelBorderColor=none;" parent="1" source="11" target="9" edge="1">
                    <mxGeometry relative="1" as="geometry"/>
                </mxCell>
                <mxCell id="22" value="&lt;font&gt;Update&lt;/font&gt;" style="edgeLabel;html=1;align=center;verticalAlign=middle;resizable=0;points=[];fontColor=default;labelBorderColor=none;" parent="21" vertex="1" connectable="0">
                    <mxGeometry x="-0.12" relative="1" as="geometry">
                        <mxPoint x="3" y="-12" as="offset"/>
                    </mxGeometry>
                </mxCell>
                <mxCell id="33" style="edgeStyle=none;html=1;fontColor=default;startArrow=none;startFill=0;endArrow=none;endFill=0;entryX=0.145;entryY=0;entryDx=0;entryDy=4.35;entryPerimeter=0;exitX=1;exitY=0.5;exitDx=0;exitDy=0;labelBorderColor=none;" parent="1" source="11" target="32" edge="1">
                    <mxGeometry relative="1" as="geometry">
                        <mxPoint x="770" y="260" as="targetPoint"/>
                        <Array as="points"/>
                    </mxGeometry>
                </mxCell>
                <mxCell id="24" value="Source Site" style="ellipse;shape=cloud;whiteSpace=wrap;html=1;fontColor=default;labelBorderColor=none;" parent="1" vertex="1">
                    <mxGeometry x="740" y="170" width="120" height="80" as="geometry"/>
                </mxCell>
                <mxCell id="26" value="Source Site" style="ellipse;shape=cloud;whiteSpace=wrap;html=1;fontColor=default;labelBorderColor=none;" parent="1" vertex="1">
                    <mxGeometry x="790" y="240" width="120" height="80" as="geometry"/>
                </mxCell>
                <mxCell id="27" value="Source Site" style="ellipse;shape=cloud;whiteSpace=wrap;html=1;fontColor=default;labelBorderColor=none;" parent="1" vertex="1">
                    <mxGeometry x="810" y="320" width="120" height="80" as="geometry"/>
                </mxCell>
                <mxCell id="32" value="Subs" style="shape=cylinder3;whiteSpace=wrap;html=1;boundedLbl=1;backgroundOutline=1;size=15;labelBorderColor=none;fontColor=default;" parent="1" vertex="1">
                    <mxGeometry x="760" y="500" width="80" height="80" as="geometry"/>
                </mxCell>
                <mxCell id="38" value="" style="edgeStyle=none;html=1;fontColor=default;startArrow=none;startFill=0;endArrow=classic;endFill=1;labelBorderColor=none;" parent="1" source="34" target="37" edge="1">
                    <mxGeometry relative="1" as="geometry"/>
                </mxCell>
                <mxCell id="39" value="Notify" style="edgeLabel;html=1;align=center;verticalAlign=middle;resizable=0;points=[];fontColor=default;labelBorderColor=none;" parent="38" vertex="1" connectable="0">
                    <mxGeometry x="-0.28" relative="1" as="geometry">
                        <mxPoint x="-5" as="offset"/>
                    </mxGeometry>
                </mxCell>
                <mxCell id="40" value="entry" style="shape=cylinder3;whiteSpace=wrap;html=1;boundedLbl=1;backgroundOutline=1;size=15;labelBorderColor=none;fontColor=default;" parent="1" vertex="1">
                    <mxGeometry x="760" y="400" width="80" height="80" as="geometry"/>
                </mxCell>
                <mxCell id="50" value="" style="group;labelBorderColor=none;fontColor=default;" parent="1" vertex="1" connectable="0">
                    <mxGeometry x="380" y="530" width="120" height="60" as="geometry"/>
                </mxCell>
                <mxCell id="37" value="Notifier" style="rounded=1;whiteSpace=wrap;html=1;labelBorderColor=none;fontColor=default;" parent="50" vertex="1">
                    <mxGeometry width="120" height="60" as="geometry"/>
                </mxCell>
                <mxCell id="51" value="" style="group;labelBorderColor=none;fontColor=default;" parent="1" vertex="1" connectable="0">
                    <mxGeometry x="600" y="530" width="120" height="60" as="geometry"/>
                </mxCell>
                <mxCell id="34" value="Downloader" style="rounded=1;whiteSpace=wrap;html=1;labelBorderColor=none;fontColor=default;" parent="51" vertex="1">
                    <mxGeometry width="120" height="60" as="geometry"/>
                </mxCell>
                <mxCell id="52" value="" style="group;labelBorderColor=none;fontColor=default;" parent="1" vertex="1" connectable="0">
                    <mxGeometry x="600" y="290" width="120" height="60" as="geometry"/>
                </mxCell>
                <mxCell id="9" value="Sourcer" style="rounded=1;whiteSpace=wrap;html=1;labelBorderColor=none;fontColor=default;" parent="52" vertex="1">
                    <mxGeometry width="120" height="60" as="geometry"/>
                </mxCell>
                <mxCell id="53" value="" style="group;labelBorderColor=none;fontColor=default;" parent="1" vertex="1" connectable="0">
                    <mxGeometry x="600" y="430" width="120" height="60" as="geometry"/>
                </mxCell>
                <mxCell id="11" value="Subscription" style="rounded=1;whiteSpace=wrap;html=1;labelBorderColor=none;fontColor=default;" parent="53" vertex="1">
                    <mxGeometry width="120" height="60" as="geometry"/>
                </mxCell>
                <mxCell id="61" value="Meta" style="shape=cylinder3;whiteSpace=wrap;html=1;boundedLbl=1;backgroundOutline=1;size=15;labelBorderColor=none;fontColor=default;" parent="1" vertex="1">
                    <mxGeometry x="170" y="380" width="80" height="80" as="geometry"/>
                </mxCell>
            </root>
        </mxGraphModel>
    </diagram>
</mxfile>